<?xml version="1.0" standalone="no"?><svg xmlns="http://www.w3.org/2000/svg" viewBox="0 0 1440 320"><path fill="#FEB9FB" fill-opacity="1" d="M0,160L24,176C48,192,96,224,144,245.3C192,267,240,277,288,272C336,267,384,245,432,213.3C480,181,528,139,576,144C624,149,672,203,720,213.3C768,224,816,192,864,154.7C912,117,960,75,1008,85.3C1056,96,1104,160,1152,197.3C1200,235,1248,245,1296,229.3C1344,213,1392,171,1416,149.3L1440,128L1440,0L1416,0C1392,0,1344,0,1296,0C1248,0,1200,0,1152,0C1104,0,1056,0,1008,0C960,0,912,0,864,0C816,0,768,0,720,0C672,0,624,0,576,0C528,0,480,0,432,0C384,0,336,0,288,0C240,0,192,0,144,0C96,0,48,0,24,0L0,0Z"></path></svg>